<svg width="100" height="100" viewBox="0 0 100 100" fill="none" xmlns="http://www.w3.org/2000/svg">
  <path d="M50 20V40L32.68 50L15.36 40V20L32.68 10L50 20Z" fill="#C5A572" transform="rotate(0 50 50)" style="opacity:0.9"/>
  <path d="M50 20V40L67.32 50L84.64 40V20L67.32 10L50 20Z" fill="#A58552" transform="rotate(120 50 50)" style="opacity:0.9"/>
  <path d="M50 20V40L67.32 50L84.64 40V20L67.32 10L50 20Z" fill="#8B6D3F" transform="rotate(240 50 50)" style="opacity:0.9"/>
  
  <!-- Interlocking geometric path based on the logo image -->
  <g transform="translate(50, 50) scale(0.8)">
    <!-- Vertical Top Bar -->
    <path d="M-10 -35 L10 -35 L10 5 L-10 5 Z" fill="#C5A572" />
    <!-- Bottom Right Bar -->
    <path d="M5 0 L25 12 L15 30 L-5 18 Z" fill="#C5A572" transform="rotate(120)" />
    <!-- Bottom Left Bar -->
    <path d="M5 0 L25 12 L15 30 L-5 18 Z" fill="#C5A572" transform="rotate(240)" />
    
    <!-- Shading/Overlap parts to give the interlocking effect -->
    <path d="M0 0 L10 5 L10 -5 Z" fill="#A58552" transform="rotate(0)" />
    <path d="M0 0 L10 5 L10 -5 Z" fill="#A58552" transform="rotate(120)" />
    <path d="M0 0 L10 5 L10 -5 Z" fill="#A58552" transform="rotate(240)" />
  </g>
</svg>
